<svg viewBox="0 0 620 128" xmlns="http://www.w3.org/2000/svg">
    <g fill="none" fill-rule="evenodd">
        <path d="M122.14 79A62 62 0 1 1 1.84 49a62 62 0 0 1 120.3 30z" fill="#F7931A"></path>
        <path d="M88.85 54.76c1.22-8.3-5.02-12.76-13.57-15.74l2.77-11.25-6.76-1.7-2.7 10.95c-1.78-.45-3.6-.87-5.42-1.3l2.71-11.01L59.12 23l-2.77 11.24c-1.47-.34-2.92-.67-4.32-1.03v-.03l-9.33-2.36-1.8 7.31s5.02 1.17 4.92 1.24c2.74.69 3.23 2.52 3.15 3.98l-3.16 12.8c.2.06.44.13.7.24l-.7-.18-4.43 17.94c-.34.85-1.19 2.1-3.1 1.63.06.1-4.92-1.24-4.92-1.24L30 82.37l8.8 2.22 4.83 1.26-2.8 11.38 6.76 1.7 2.77-11.25c1.85.5 3.64.97 5.4 1.41l-2.77 11.2 6.77 1.71 2.8-11.35c11.53 2.2 20.21 1.32 23.86-9.24 2.95-8.5-.14-13.4-6.21-16.6 4.42-1.03 7.75-3.97 8.64-10.05zM73.39 76.69c-2.1 8.5-16.24 3.9-20.83 2.75l3.72-15.07c4.58 1.16 19.3 3.46 17.1 12.32zm2.09-22.05c-1.9 7.73-13.68 3.8-17.5 2.84l3.36-13.67c3.82.96 16.13 2.76 14.14 10.83z" fill="#FFF" fill-rule="nonzero"></path>
        <g fill="white">
            <path d="M208.81 37.53c5.03 0 9.38.9 13.04 2.67 3.67 1.8 6.7 4.2 9.13 7.23 2.4 3.04 4.18 6.6 5.33 10.68a48.79 48.79 0 0 1 1.72 13.2c0 7.23-1.33 14.06-4 20.5a51.35 51.35 0 0 1-27.26 28.11 49.87 49.87 0 0 1-20.4 4.16c-.95 0-2.61-.03-4.96-.08-2.35-.04-5.06-.29-8.08-.7a94.8 94.8 0 0 1-9.67-1.89 48.42 48.42 0 0 1-9.66-3.45L181.17 3.77 205.51 0l-9.73 40.52a37.84 37.84 0 0 1 6.28-2.2c2.1-.52 4.35-.79 6.75-.79zm-20.41 67.24c3.66 0 7.11-.9 10.36-2.67a27.28 27.28 0 0 0 8.41-7.15c2.36-3 4.22-6.36 5.58-10.13a34.53 34.53 0 0 0 2.04-11.8c0-5.02-.84-8.94-2.51-11.77-1.68-2.82-4.77-4.24-9.27-4.24-1.48 0-3.37.28-5.73.78a14.3 14.3 0 0 0-6.37 3.3l-10.36 43.04 1.65.31a17.06 17.06 0 0 0 3.37.33h2.83zM261.25 124.31H238l19.63-82.6h23.4l-19.78 82.6zm11.31-92.67c-3.24 0-6.19-.97-8.8-2.9-2.63-1.93-3.93-4.89-3.93-8.88 0-2.2.44-4.26 1.33-6.2a16.58 16.58 0 0 1 8.64-8.4A15.58 15.58 0 0 1 276.01 4c3.25 0 6.17.97 8.8 2.9 2.6 1.95 3.92 4.9 3.92 8.88 0 2.2-.45 4.27-1.34 6.2a16.35 16.35 0 0 1-8.63 8.4c-1.94.85-4 1.26-6.2 1.26z" fill-rule="nonzero"></path>
            <path d="M303.63 19.77L327.98 16 322 40.35h26.08l-4.71 19.16h-25.92l-6.9 28.9c-.64 2.4-1 4.65-1.1 6.74-.12 2.1.15 3.9.78 5.43a6.82 6.82 0 0 0 3.37 3.52c1.63.85 3.95 1.27 7 1.27 2.5 0 4.94-.24 7.3-.71a51.86 51.86 0 0 0 7.14-1.96l1.74 17.91a83.42 83.42 0 0 1-10.21 2.98 58.8 58.8 0 0 1-13.04 1.25c-7.23 0-12.82-1.07-16.81-3.2-3.99-2.16-6.8-5.1-8.49-8.82-1.66-3.7-2.4-7.97-2.2-12.79.22-4.82.95-9.9 2.2-15.24l15.4-65.02zM346 91.84a58 58 0 0 1 3.45-20.1 49.47 49.47 0 0 1 9.9-16.51c4.29-4.7 9.5-8.41 15.64-11.15 6.11-2.71 12.95-4.08 20.49-4.08 4.72 0 8.93.45 12.64 1.34 3.72.9 7.1 2.07 10.14 3.53l-8.02 18.23c-2.1-.85-4.27-1.6-6.51-2.28-2.25-.69-5-1.02-8.25-1.02-7.76 0-13.9 2.67-18.46 8-4.55 5.34-6.84 12.52-6.84 21.53 0 5.34 1.16 9.65 3.47 12.96 2.3 3.3 6.55 4.94 12.72 4.94a43.34 43.34 0 0 0 16.34-3.3l1.73 18.7a84.13 84.13 0 0 1-9.74 3.07c-3.56.87-7.8 1.32-12.72 1.32-6.5 0-12-.95-16.5-2.82a31.4 31.4 0 0 1-11.14-7.62 28.72 28.72 0 0 1-6.37-11.24 46.1 46.1 0 0 1-1.97-13.5z"></path>
            <path d="M450.66 127.02c-5.55 0-10.37-.84-14.46-2.52a26.69 26.69 0 0 1-10.12-7.06 30.54 30.54 0 0 1-6.05-10.76A43.45 43.45 0 0 1 418 92.95c0-6.3 1.01-12.59 3.05-18.86a53.4 53.4 0 0 1 9.04-16.96 48.27 48.27 0 0 1 14.6-12.34c5.75-3.19 12.36-4.79 19.78-4.79 5.45 0 10.24.85 14.39 2.52a26.88 26.88 0 0 1 10.2 7.07 30.68 30.68 0 0 1 6.04 10.76 43.56 43.56 0 0 1 2.04 13.74c0 6.27-1 12.56-2.97 18.86a54.45 54.45 0 0 1-8.8 16.96 46.1 46.1 0 0 1-14.53 12.32c-5.8 3.2-12.54 4.8-20.18 4.8zm11.62-67.22c-3.45 0-6.5 1-9.1 2.98-2.62 2-4.82 4.5-6.6 7.54a37.24 37.24 0 0 0-4.01 9.97 43 43 0 0 0-1.33 10.29c0 5.24.85 9.32 2.5 12.26 1.7 2.92 4.72 4.4 9.12 4.4 3.46 0 6.49-1 9.11-3 2.6-1.98 4.8-4.5 6.6-7.53a37.34 37.34 0 0 0 4.01-9.98c.88-3.6 1.33-7.04 1.33-10.28 0-5.23-.84-9.32-2.52-12.26-1.68-2.92-4.72-4.4-9.11-4.4zM521.27 124.31H498l19.63-82.6h23.42l-19.78 82.6zm11.3-92.67a14.4 14.4 0 0 1-8.8-2.9c-2.62-1.93-3.93-4.89-3.93-8.88 0-2.2.45-4.26 1.34-6.2a16.37 16.37 0 0 1 8.64-8.4c1.93-.84 4-1.26 6.2-1.26 3.24 0 6.18.97 8.8 2.9 2.61 1.95 3.93 4.9 3.93 8.88 0 2.2-.47 4.27-1.35 6.2a16.3 16.3 0 0 1-8.62 8.4 15.36 15.36 0 0 1-6.22 1.26z" fill-rule="nonzero"></path>
            <path d="M557.02 45.66c1.76-.51 3.73-1.14 5.87-1.81a86.67 86.67 0 0 1 16.18-3.3c3.3-.37 7.06-.55 11.23-.55 12.26 0 20.71 3.57 25.38 10.69 4.66 7.12 5.47 16.86 2.44 29.21l-10.7 44.6h-23.4l10.37-43.66a93.31 93.31 0 0 0 1.5-7.94c.37-2.55.35-4.8-.09-6.75a8.08 8.08 0 0 0-2.9-4.71c-1.53-1.2-3.85-1.8-6.99-1.8-3.03 0-6.11.32-9.26.95L561.4 124.5H538l19.02-78.85z"></path>
        </g>
    </g>
</svg>